<?xml version="1.0" encoding="UTF-8"?>
<svg id="Layer_1" xmlns="http://www.w3.org/2000/svg" viewBox="0 0 3968.5 828.65">
  <defs>
    <style>
      .cls-1 {
        fill: #fff;
      }

      .cls-2 {
        fill: #56a0d3;
      }
    </style>
  </defs>
  <g>
    <path class="cls-1" d="M680.35,381.65v193.28c0,10.37-1.78,20.54-5.32,30.51-3.56,9.97-9.28,18.9-17.19,26.82-7.92,7.92-18.42,14.27-31.53,19.05-13.1,4.77-29.34,7.15-48.72,7.15s-35.28-2.38-48.52-7.15c-13.23-4.79-23.81-11.13-31.72-19.05-7.92-7.92-13.65-16.86-17.19-26.82-3.56-9.97-5.33-20.13-5.33-30.51v-193.28h61.45v187.5c0,11.19,3.01,19.78,9.02,25.79,5.99,6.01,16.76,9,32.31,9s26.31-3,32.31-9c5.99-6.01,9-14.6,9-25.79v-187.5h61.45Z"/>
    <polygon class="cls-1" points="787.83 474.98 787.83 654.28 729.31 654.28 729.31 381.64 804.67 381.64 894.37 569.55 894.37 381.64 952.87 381.64 952.87 654.28 877.11 654.28 787.83 474.98"/>
    <rect class="cls-1" x="1002.55" y="381.65" width="61.45" height="272.62"/>
    <polygon class="cls-1" points="1267.17 654.27 1179.57 654.27 1102.6 381.65 1165.66 381.65 1223.38 598.59 1281.1 381.65 1344.14 381.65 1267.17 654.27"/>
    <polygon class="cls-1" points="1376.36 654.27 1376.36 381.65 1547.93 381.65 1547.93 436.17 1437.81 436.17 1437.81 486.08 1539.33 486.08 1539.33 540.61 1437.81 540.61 1437.81 599.74 1547.93 599.74 1547.93 654.27 1376.36 654.27"/>
    <polygon class="cls-1" points="2298.41 654.27 2298.41 381.65 2359.86 381.65 2359.86 599.74 2467.94 599.74 2467.94 654.27 2298.41 654.27"/>
    <path class="cls-1" d="M3069.08,574.91c0,10.37-1.92,20.55-5.73,30.52-3.81,9.97-9.88,18.91-18.19,26.82-8.33,7.92-19.17,14.28-32.52,19.05-13.36,4.77-29.71,7.17-49.06,7.17s-35.36-2.39-48.86-7.17c-13.5-4.77-24.39-11.13-32.72-19.05-8.3-7.91-14.38-16.86-18.19-26.82-3.81-9.97-5.73-20.15-5.73-30.52v-113.89c0-10.39,1.92-20.55,5.73-30.52,3.81-9.97,9.88-18.91,18.19-26.84,8.33-7.91,19.22-14.27,32.72-19.04,13.5-4.77,29.78-7.17,48.86-7.17s35.7,2.39,49.06,7.17c13.36,4.77,24.19,11.13,32.52,19.04,8.3,7.92,14.38,16.87,18.19,26.84,3.81,9.97,5.73,20.13,5.73,30.52v113.89ZM3007.63,466.36c0-10.64-3.47-19.04-10.4-25.19-6.93-6.13-18.16-9.21-33.64-9.21s-26.71,3.08-33.64,9.21c-6.93,6.15-10.4,14.55-10.4,25.19v103.19c0,10.64,3.47,19.03,10.4,25.17,6.93,6.15,18.14,9.21,33.64,9.21s26.71-3.07,33.64-9.21c6.93-6.15,10.4-14.53,10.4-25.17v-103.19Z"/>
    <path class="cls-1" d="M3301.53,589.18c0,19.38-6.34,35.08-19.03,47.08-12.68,12.01-32.68,18-59.96,18h-116.27v-272.62h107.65c28.38,0,48.43,5.32,60.16,15.96,11.73,10.64,17.6,25.24,17.6,43.79v27.85c0,9.81-2.32,18.28-6.96,25.37-4.65,7.11-12.43,12.98-23.35,17.61,11.47,2.72,21.03,8.6,28.69,17.6,7.66,9,11.48,19.94,11.48,32.75v26.61ZM3230.23,450.39c0-6.01-1.9-10.71-5.71-14.13-3.82-3.42-10.08-5.12-18.79-5.12h-38v62.27h38c8.16,0,14.28-1.83,18.37-5.52,4.09-3.68,6.13-8.26,6.13-13.73v-23.77ZM3240.09,564.19c0-7.64-2.25-13.38-6.73-17.21-4.51-3.84-10.85-5.75-19.01-5.75h-46.61v63.55h38.01c9.55,0,17.65-1.5,24.33-4.51,6.68-3,10.01-9.42,10.01-19.26v-16.81Z"/>
    <path class="cls-1" d="M3545.34,574.91c0,10.37-1.9,20.55-5.73,30.52-3.81,9.97-9.88,18.91-18.19,26.82-8.32,7.92-19.15,14.28-32.51,19.05-13.37,4.77-29.72,7.17-49.07,7.17s-35.36-2.39-48.86-7.17c-13.5-4.77-24.4-11.13-32.72-19.05-8.3-7.91-14.38-16.86-18.19-26.82-3.82-9.97-5.73-20.15-5.73-30.52v-113.89c0-10.39,1.9-20.55,5.73-30.52,3.81-9.97,9.88-18.91,18.19-26.84,8.32-7.91,19.22-14.27,32.72-19.04,13.5-4.77,29.78-7.17,48.86-7.17s35.7,2.39,49.07,7.17c13.36,4.77,24.19,11.13,32.51,19.04,8.3,7.92,14.38,16.87,18.19,26.84,3.82,9.97,5.73,20.13,5.73,30.52v113.89ZM3483.9,466.36c0-10.64-3.47-19.04-10.4-25.19-6.93-6.13-18.16-9.21-33.64-9.21s-26.71,3.08-33.64,9.21c-6.93,6.15-10.4,14.55-10.4,25.19v103.19c0,10.64,3.47,19.03,10.4,25.17,6.93,6.15,18.16,9.21,33.64,9.21s26.71-3.07,33.64-9.21c6.93-6.15,10.4-14.53,10.4-25.17v-103.19Z"/>
    <polygon class="cls-1" points="3695.59 436.17 3695.59 654.28 3634.15 654.28 3634.15 436.17 3560.87 436.17 3560.87 381.64 3768.87 381.64 3768.87 436.17 3695.59 436.17"/>
    <polygon class="cls-1" points="2107.34 381.65 2194.95 381.65 2271.91 654.27 2208.87 654.27 2151.15 437.32 2093.42 654.27 2030.38 654.27 2107.34 381.65"/>
    <path class="cls-1" d="M2015.16,579.3c0,13.2-1.37,24.79-4.09,34.76-2.74,9.98-7.8,18.33-15.16,25.06-7.38,6.73-17.56,11.72-30.52,14.95-12.98,3.23-29.69,4.84-50.16,4.84-15.83,0-31.53-1.53-47.08-4.63-15.55-3.09-20.72-5.1-30.46-8.55l-.24-51.03c12.56,3.75,25.24,6.85,38.07,9.28,12.82,2.42,26.35,3.63,40.53,3.63,7.92,0,14.34-.39,19.24-1.2,4.93-.81,8.74-2.35,11.47-4.65,2.74-2.3,4.58-5.26,5.53-8.89.97-3.65,1.44-8.29,1.44-13.96,0-6.2-.28-11.12-.83-14.77-.55-3.61-2.32-6.65-5.32-9.07-3-2.42-7.59-4.58-13.72-6.47-6.15-1.89-14.81-4.05-26.01-6.48-16.38-3.5-29.55-7.2-39.52-11.12-9.97-3.91-17.61-8.89-22.93-14.95-5.32-6.06-8.88-13.8-10.65-23.24-1.78-9.44-2.66-21.42-2.66-35.98,0-13.47,1.37-24.92,4.1-34.36,2.73-9.42,7.64-17.18,14.74-23.24,7.1-6.06,16.73-10.53,28.88-13.34,12.15-2.84,27.65-4.24,46.47-4.24,12.01,0,24.98.67,38.91,2.02,13.92,1.34,28.52,3.64,43.81,6.87l-.03,51.84c-15.55-2.7-35.13-5.56-46.45-6.78-11.31-1.22-23.13-1.82-35.41-1.82-6.82,0-12.42.34-16.79,1.01-4.37.69-7.77,1.96-10.23,3.85-2.45,1.88-4.16,4.44-5.11,7.67-.97,3.23-1.43,7.28-1.43,12.12,0,6.47.27,11.52.81,15.16.55,3.64,2.25,6.59,5.11,8.89,2.87,2.3,7.31,4.33,13.33,6.06,5.99,1.76,14.32,3.85,24.98,6.27,18.56,4.31,32.97,8.69,43.2,13.13,10.23,4.45,17.95,9.72,23.13,15.78,5.19,6.05,8.34,13.54,9.44,22.43s1.64,19.94,1.64,33.14"/>
    <path class="cls-1" d="M3968.5,579.3c0,13.2-1.37,24.79-4.09,34.76-2.74,9.97-7.8,18.33-15.16,25.06-7.38,6.73-17.56,11.72-30.53,14.95-12.95,3.23-29.68,4.84-50.15,4.84-15.83,0-31.53-1.54-47.08-4.63-15.55-3.09-20.73-5.1-30.46-8.55l-.24-51.03c12.54,3.75,25.24,6.85,38.08,9.28,12.82,2.41,26.33,3.61,40.52,3.61,7.91,0,14.34-.38,19.24-1.2,4.93-.8,8.74-2.34,11.47-4.63,2.74-2.3,4.56-5.26,5.53-8.89.95-3.65,1.43-8.3,1.43-13.96,0-6.2-.27-11.12-.81-14.77-.55-3.63-2.32-6.65-5.32-9.09-3-2.41-7.59-4.58-13.72-6.47-6.15-1.89-14.81-4.03-26.01-6.47-16.38-3.5-29.55-7.2-39.52-11.12-9.97-3.91-17.61-8.89-22.93-14.95-5.33-6.06-8.88-13.8-10.65-23.24-1.78-9.44-2.66-21.42-2.66-35.98,0-13.47,1.37-24.93,4.09-34.36,2.74-9.44,7.66-17.18,14.76-23.24,7.1-6.06,16.73-10.53,28.88-13.34,12.14-2.84,27.65-4.24,46.47-4.24,12.01,0,24.98.67,38.89,2.02,13.93,1.34,28.53,3.64,43.82,6.87l-.03,51.84c-15.55-2.7-35.13-5.57-46.45-6.78-11.33-1.22-23.13-1.82-35.41-1.82-6.83,0-12.42.34-16.79,1.01-4.37.69-7.77,1.96-10.23,3.85-2.45,1.88-4.17,4.44-5.11,7.67-.97,3.23-1.43,7.28-1.43,12.12,0,6.47.27,11.52.81,15.16.55,3.64,2.25,6.59,5.11,8.89,2.87,2.3,7.31,4.33,13.31,6.06,6.01,1.76,14.34,3.85,24.99,6.27,18.56,4.31,32.96,8.69,43.2,13.13,10.23,4.45,17.95,9.72,23.13,15.78,5.19,6.05,8.34,13.52,9.44,22.43,1.09,8.89,1.64,19.94,1.64,33.14"/>
    <path class="cls-1" d="M1720.64,473.54c0,5.46-2.04,10.04-6.13,13.73-4.07,3.68-10.21,5.52-18.37,5.52h-38v-62.27h38c8.71,0,14.98,1.69,18.79,5.11,3.81,3.42,5.71,8.13,5.71,14.14v23.77ZM1751.16,511.95c10.92-4.65,18.7-10.5,23.35-17.6s6.96-15.55,6.96-25.38v-27.83c0-18.55-5.87-33.15-17.6-43.81-11.73-10.64-31.78-15.96-60.16-15.96h-107.63v272.92h62.06v-113.32h45.99c8.18,0,14.5,1.9,19.01,5.74,4.49,3.82,6.73,9.56,6.73,17.22v90.36h61.45v-91.98c0-12.82-3.82-23.74-11.48-32.75-7.64-9.02-17.21-14.88-28.69-17.61"/>
    <path class="cls-1" d="M2752.36,473.67c0,5.46-2.04,10.04-6.13,13.73-4.07,3.68-10.21,5.52-18.38,5.52h-37.98v-62.27h37.98c8.72,0,14.98,1.69,18.8,5.12,3.81,3.4,5.71,8.12,5.71,14.13v23.77ZM2782.88,512.08c10.92-4.65,18.7-10.5,23.34-17.6,4.65-7.1,6.97-15.55,6.97-25.38v-27.83c0-18.55-5.87-33.15-17.6-43.81-11.73-10.63-31.78-15.96-60.16-15.96h-107.63v272.92h62.06v-113.32s45.99,0,45.99,0c8.16,0,14.5,1.92,19,5.74,4.49,3.84,6.75,9.58,6.75,17.22v90.36h61.45v-91.98c0-12.82-3.82-23.74-11.48-32.75-7.64-9.02-17.22-14.88-28.69-17.61"/>
    <path class="cls-2" d="M361.14,377.07l-95.7-94.79c-10.33-10.33-17.71-23.6-17.71-23.6-13.26-28.5.5-56.03.5-56.03,8.83-19.18,25.06-36.86,25.06-36.86,20.4-25.2,17.7-43.26,17.7-43.26-.8-13.94-9.56-20.71-12.89-22.79-5.87-2.97-13.79-4.45-23.79-4.45-13.36,0-23.03,2.66-29.01,7.94-5.96,5.29-8.95,12.53-8.95,21.71l-1.01,89.31h-.01v63.39c0,8.76-1.5,17.36-4.49,25.79-3.01,8.41-7.84,15.96-14.53,22.67-6.69,6.68-15.57,12.05-26.64,16.09-11.07,4.05-24.79,6.05-41.17,6.05s-29.82-2-41.01-6.05c-11.19-4.03-20.12-9.41-26.82-16.09-6.68-6.71-11.52-14.25-14.52-22.67-3.01-8.43-4.51-17.02-4.51-25.79L41.59,0h-11.23C13.59,0,0,13.6,0,30.37v318.81c0,16.79,13.59,30.37,30.37,30.37h318.82c4.26,0,8.32-.88,11.98-2.46h-.03Z"/>
    <path class="cls-2" d="M349.19,0H93.58v272.72c0,9.46,2.53,16.73,7.6,21.81,5.07,5.08,14.17,7.6,27.31,7.6s22.23-2.52,27.3-7.6c5.07-5.08,7.62-12.35,7.62-21.81v-54.26h-.01v-98.15c0-8.93,1.64-17.71,4.93-26.29,3.29-8.6,8.51-16.31,15.68-23.14,7.17-6.82,16.56-12.28,28.18-16.41,11.63-4.12,25.68-6.17,42.13-6.17s30.77,2.06,42.28,6.17c11.51,4.13,20.85,9.59,28.03,16.41,7.15,6.83,12.39,14.55,15.67,23.14,1.02,2.66,1.78,5.4,2.42,8.16,1.18,4.33,1.37,7.07,1.37,7.07.15,1.19.21,2.35.31,3.51.06.64.13,1.29.15,1.92.06.94.08,1.86.1,2.79.04,1.09.13,2.2.13,3.29h-.1c-.53,28.77-16.32,48.45-16.32,48.45-4.91,7.87-27.52,39.33-27.52,39.33-15.72,21.14.5,35.88.5,35.88l78.22,78.23V30.37C379.54,13.6,365.96,0,349.19,0"/>
    <path class="cls-1" d="M46.14,303.42c3,8.41,7.84,15.96,14.53,22.67,6.69,6.68,15.62,12.05,26.82,16.09,11.17,4.05,24.85,6.05,40.99,6.05s30.1-2,41.17-6.05c11.07-4.03,19.95-9.41,26.64-16.09,6.69-6.71,11.54-14.25,14.55-22.67,3-8.43,4.48-17.02,4.48-25.79v-63.41h.03l.99-89.31c0-9.17,2.98-16.41,8.96-21.7,5.98-5.29,15.64-7.94,29.01-7.94,9.98,0,17.91,1.48,23.77,4.45,3.33,2.09,12.11,8.85,12.91,22.79,0,0,2.7,18.06-17.7,43.25,0,0-16.23,17.7-25.07,36.86,0,0-13.76,27.54-.49,56.04,0,0,7.38,13.27,17.7,23.59l95.7,94.81h.04c10.79-4.63,18.37-15.37,18.37-27.89v-26.53l-78.23-78.23s-16.23-14.76-.49-35.88c0,0,22.61-31.46,27.52-39.33,0,0,15.78-19.7,16.31-48.45h.1c0-1.09-.08-2.2-.11-3.3-.03-.92-.04-1.83-.1-2.77-.04-.64-.11-1.27-.17-1.92-.1-1.18-.15-2.32-.31-3.51,0,0-.18-2.74-1.36-7.07-.64-2.76-1.41-5.5-2.42-8.18-3.29-8.6-8.53-16.31-15.68-23.13-7.17-6.82-16.51-12.29-28.01-16.42-11.52-4.1-25.61-6.17-42.28-6.17s-30.49,2.07-42.13,6.17c-11.62,4.13-21.03,9.6-28.18,16.42-7.17,6.82-12.4,14.53-15.68,23.13-3.29,8.6-4.94,17.36-4.94,26.31v98.15h.01v54.26c0,9.46-2.53,16.73-7.6,21.81-5.07,5.08-14.18,7.6-27.31,7.6s-22.23-2.52-27.3-7.6c-5.08-5.08-7.62-12.35-7.62-21.81V0h-51.97l.04,277.62c0,8.76,1.5,17.36,4.49,25.79"/>
  </g>
  <g>
    <path class="cls-1" d="M2651.58,808.53l27.17-65.8h11.56l26.98,65.8h-10.72l-7.61-19.27h-29.52l-7.61,19.27h-10.25ZM2672.73,781.08h23.03l-11.47-28.95-11.56,28.95Z"/>
    <path class="cls-1" d="M2761.75,808.53v-57.06h-23.12v-8.74h56.12v8.74h-23.12v57.06h-9.87Z"/>
    <path class="cls-1" d="M2813.92,809.37c-4.7,0-8.95-1.08-12.74-3.24-3.79-2.16-6.82-5.14-9.07-8.93-2.26-3.79-3.38-8-3.38-12.64s1.08-8.8,3.24-12.5c2.16-3.7,5.06-6.66,8.69-8.88,3.63-2.22,7.71-3.34,12.22-3.34s8.32,1.11,11.8,3.34c3.48,2.23,6.23,5.23,8.27,9.02,2.04,3.79,3.06,8.07,3.06,12.83v2.54h-37.79c.44,2.7,1.39,5.06,2.87,7.1,1.47,2.04,3.35,3.67,5.64,4.89,2.29,1.22,4.81,1.83,7.57,1.83,2.38,0,4.64-.38,6.77-1.13,2.13-.75,3.92-1.75,5.36-3.01l5.92,5.83c-2.76,2.13-5.63,3.71-8.6,4.75-2.98,1.03-6.25,1.55-9.82,1.55ZM2798.31,780.52h28.39c-.44-2.44-1.33-4.62-2.68-6.53-1.35-1.91-2.99-3.42-4.93-4.51-1.94-1.1-4.11-1.65-6.49-1.65s-4.58.55-6.58,1.65c-2.01,1.1-3.68,2.58-5.03,4.46s-2.24,4.07-2.68,6.58Z"/>
    <path class="cls-1" d="M2844.84,808.53v-47.94h9.4v6.2c1.5-2.26,3.37-4.01,5.59-5.26,2.22-1.25,4.75-1.88,7.57-1.88,1.94,0,3.54.25,4.79.75v8.46c-.88-.38-1.79-.64-2.73-.8-.94-.16-1.91-.24-2.91-.24-2.7,0-5.11.74-7.24,2.21-2.13,1.47-3.82,3.62-5.08,6.44v32.05h-9.4Z"/>
    <path class="cls-1" d="M2892.97,809.37c-3.51,0-6.58-.61-9.21-1.83-2.63-1.22-4.7-2.93-6.2-5.12-1.5-2.19-2.26-4.73-2.26-7.61,0-4.51,1.74-8.05,5.22-10.62,3.48-2.57,8.19-3.85,14.15-3.85,4.7,0,9.02.85,12.97,2.54v-4.98c0-3.45-.97-6.02-2.91-7.71-1.94-1.69-4.83-2.54-8.65-2.54-2.19,0-4.46.33-6.82.99-2.35.66-5,1.68-7.94,3.06l-3.57-7.05c3.57-1.69,6.94-2.93,10.11-3.71,3.16-.78,6.34-1.17,9.54-1.17,6.2,0,11.01,1.47,14.43,4.42,3.42,2.95,5.12,7.14,5.12,12.6v31.77h-9.31v-4.14c-2.07,1.69-4.32,2.95-6.77,3.76s-5.08,1.22-7.9,1.22ZM2884.23,794.52c0,2.38,1,4.29,3.01,5.73,2,1.44,4.61,2.16,7.8,2.16,2.51,0,4.83-.38,6.96-1.13,2.13-.75,4.01-1.91,5.64-3.48v-8.08c-1.76-1-3.64-1.75-5.64-2.26-2.01-.5-4.17-.75-6.49-.75-3.51,0-6.27.72-8.27,2.16-2.01,1.44-3.01,3.32-3.01,5.64Z"/>
    <path class="cls-1" d="M2949.75,809.28c-4.45,0-8.54-1.1-12.27-3.29-3.73-2.19-6.66-5.15-8.79-8.88-2.13-3.73-3.2-7.94-3.2-12.64s1.08-8.73,3.24-12.45,5.11-6.67,8.84-8.84c3.73-2.16,7.85-3.24,12.36-3.24,2.63,0,5.17.39,7.61,1.17,2.44.78,4.7,1.96,6.77,3.52v-21.9l9.4-1.79v67.59h-9.31v-4.61c-4.07,3.57-8.96,5.36-14.66,5.36ZM2950.97,801.1c2.76,0,5.28-.5,7.57-1.5,2.29-1,4.21-2.41,5.78-4.23v-21.62c-1.5-1.82-3.43-3.23-5.78-4.23-2.35-1-4.87-1.5-7.57-1.5-3.01,0-5.75.71-8.22,2.11-2.48,1.41-4.42,3.37-5.83,5.88-1.41,2.51-2.12,5.33-2.12,8.46s.71,5.96,2.12,8.46c1.41,2.51,3.35,4.5,5.83,5.97,2.47,1.47,5.22,2.21,8.22,2.21Z"/>
    <path class="cls-1" d="M2987.91,828.65c-.94,0-1.85-.05-2.73-.14-.88-.09-1.6-.17-2.16-.23v-8.37c1.13.25,2.51.38,4.14.38,4.32,0,7.52-2.35,9.59-7.05l1.97-4.51-19.18-48.03h10.34l14.01,36.38,15.42-36.38h10.15l-23.12,53.77c-1.5,3.45-3.12,6.2-4.84,8.27-1.72,2.07-3.67,3.57-5.83,4.51s-4.75,1.41-7.75,1.41Z"/>
    <path class="cls-1" d="M3035.28,808.53v-47.85h9.4v4.89c3.7-3.88,8.49-5.83,14.38-5.83,3.7,0,6.94.78,9.73,2.35,2.79,1.57,4.98,3.76,6.58,6.58,1.6,2.82,2.4,6.08,2.4,9.78v30.08h-9.4v-28.48c0-3.76-1.07-6.72-3.2-8.88-2.13-2.16-5.05-3.24-8.74-3.24-2.51,0-4.75.55-6.72,1.65-1.97,1.1-3.65,2.65-5.03,4.65v34.31h-9.4Z"/>
    <path class="cls-1" d="M3111.52,809.37c-4.7,0-8.95-1.08-12.74-3.24-3.79-2.16-6.82-5.14-9.07-8.93-2.26-3.79-3.38-8-3.38-12.64s1.08-8.8,3.24-12.5c2.16-3.7,5.06-6.66,8.69-8.88,3.63-2.22,7.71-3.34,12.22-3.34s8.32,1.11,11.8,3.34c3.48,2.23,6.23,5.23,8.27,9.02,2.04,3.79,3.06,8.07,3.06,12.83v2.54h-37.79c.44,2.7,1.39,5.06,2.87,7.1,1.47,2.04,3.35,3.67,5.64,4.89,2.29,1.22,4.81,1.83,7.57,1.83,2.38,0,4.64-.38,6.77-1.13,2.13-.75,3.92-1.75,5.36-3.01l5.92,5.83c-2.76,2.13-5.63,3.71-8.6,4.75-2.98,1.03-6.25,1.55-9.82,1.55ZM3095.91,780.52h28.39c-.44-2.44-1.33-4.62-2.68-6.53-1.35-1.91-2.99-3.42-4.93-4.51-1.94-1.1-4.11-1.65-6.49-1.65s-4.58.55-6.58,1.65c-2.01,1.1-3.68,2.58-5.03,4.46s-2.24,4.07-2.68,6.58Z"/>
    <path class="cls-1" d="M3163.31,808.53v-65.8h29.7c4.39,0,8.23.82,11.52,2.44,3.29,1.63,5.86,3.9,7.71,6.82,1.85,2.91,2.77,6.34,2.77,10.29,0,4.26-1.24,7.98-3.71,11.14-2.48,3.17-5.72,5.41-9.73,6.72l14.57,28.39h-11l-13.54-26.98h-18.42v26.98h-9.87ZM3173.18,773.28h19.08c3.88,0,6.99-.99,9.31-2.96,2.32-1.97,3.48-4.65,3.48-8.04s-1.16-5.97-3.48-7.94c-2.32-1.97-5.42-2.96-9.31-2.96h-19.08v21.9Z"/>
    <path class="cls-1" d="M3243.96,809.47c-4.64,0-8.85-1.08-12.64-3.24-3.79-2.16-6.8-5.14-9.02-8.93-2.23-3.79-3.34-8-3.34-12.64s1.1-8.91,3.29-12.64c2.19-3.73,5.2-6.71,9.02-8.93,3.82-2.22,8.05-3.34,12.69-3.34s8.85,1.11,12.64,3.34c3.79,2.23,6.78,5.2,8.98,8.93,2.19,3.73,3.29,7.94,3.29,12.64s-1.1,8.85-3.29,12.64c-2.19,3.79-5.19,6.77-8.98,8.93-3.79,2.16-8.01,3.24-12.64,3.24ZM3243.96,801.2c2.95,0,5.61-.74,7.99-2.21,2.38-1.47,4.26-3.46,5.64-5.97,1.38-2.51,2.07-5.33,2.07-8.46s-.69-5.84-2.07-8.32c-1.38-2.47-3.26-4.46-5.64-5.97-2.38-1.5-5.04-2.26-7.99-2.26s-5.53.75-7.94,2.26c-2.41,1.5-4.31,3.49-5.69,5.97-1.38,2.48-2.07,5.25-2.07,8.32s.69,5.95,2.07,8.46c1.38,2.51,3.27,4.5,5.69,5.97,2.41,1.47,5.06,2.21,7.94,2.21Z"/>
    <path class="cls-1" d="M3277.8,808.53v-65.8l9.4-1.79v24.25c4.01-3.51,8.87-5.26,14.57-5.26,4.51,0,8.6,1.1,12.27,3.29,3.67,2.19,6.56,5.16,8.69,8.88,2.13,3.73,3.2,7.88,3.2,12.46s-1.07,8.82-3.2,12.55c-2.13,3.73-5.04,6.69-8.74,8.88-3.7,2.19-7.87,3.29-12.5,3.29-2.63,0-5.19-.42-7.66-1.27-2.48-.85-4.72-2.05-6.72-3.62v4.14h-9.31ZM3300.55,801.1c3.07,0,5.81-.71,8.22-2.12,2.41-1.41,4.34-3.37,5.78-5.88,1.44-2.51,2.16-5.33,2.16-8.46s-.72-5.95-2.16-8.46c-1.44-2.51-3.37-4.5-5.78-5.97-2.41-1.47-5.16-2.21-8.22-2.21-2.7,0-5.2.52-7.52,1.55-2.32,1.03-4.26,2.46-5.83,4.28v21.62c1.57,1.69,3.52,3.06,5.88,4.09,2.35,1.03,4.84,1.55,7.47,1.55Z"/>
    <path class="cls-1" d="M3357.61,809.47c-4.64,0-8.85-1.08-12.64-3.24-3.79-2.16-6.8-5.14-9.02-8.93-2.23-3.79-3.34-8-3.34-12.64s1.1-8.91,3.29-12.64c2.19-3.73,5.2-6.71,9.02-8.93,3.82-2.22,8.05-3.34,12.69-3.34s8.85,1.11,12.64,3.34c3.79,2.23,6.78,5.2,8.98,8.93,2.19,3.73,3.29,7.94,3.29,12.64s-1.1,8.85-3.29,12.64c-2.19,3.79-5.19,6.77-8.98,8.93-3.79,2.16-8.01,3.24-12.64,3.24ZM3357.61,801.2c2.95,0,5.61-.74,7.99-2.21,2.38-1.47,4.26-3.46,5.64-5.97,1.38-2.51,2.07-5.33,2.07-8.46s-.69-5.84-2.07-8.32c-1.38-2.47-3.26-4.46-5.64-5.97-2.38-1.5-5.04-2.26-7.99-2.26s-5.53.75-7.94,2.26c-2.41,1.5-4.31,3.49-5.69,5.97-1.38,2.48-2.07,5.25-2.07,8.32s.69,5.95,2.07,8.46c1.38,2.51,3.27,4.5,5.69,5.97,2.41,1.47,5.06,2.21,7.94,2.21Z"/>
    <path class="cls-1" d="M3409.12,809.37c-4.58,0-8.08-1.06-10.53-3.2-2.44-2.13-3.67-5.29-3.67-9.49v-28.11h-10.15v-7.9h10.15v-12.13l9.31-2.35v14.48h14.19v7.9h-14.19v26.04c0,2.38.55,4.09,1.65,5.12,1.1,1.03,2.9,1.55,5.41,1.55,1.32,0,2.49-.09,3.52-.28,1.03-.19,2.15-.5,3.34-.94v7.99c-1.25.44-2.71.77-4.37.99-1.66.22-3.21.33-4.65.33Z"/>
    <path class="cls-1" d="M3429.99,752.88c-1.57,0-2.91-.56-4.04-1.69s-1.69-2.51-1.69-4.14.56-2.91,1.69-4.04c1.13-1.13,2.47-1.69,4.04-1.69s3.01.56,4.14,1.69c1.13,1.13,1.69,2.51,1.69,4.14s-.56,2.91-1.69,4.04-2.51,1.69-4.14,1.69ZM3425.29,808.53v-47.85h9.4v47.85h-9.4Z"/>
    <path class="cls-1" d="M3468.34,809.37c-4.64,0-8.84-1.1-12.6-3.29-3.76-2.19-6.74-5.17-8.93-8.93-2.19-3.76-3.29-7.93-3.29-12.5s1.11-8.91,3.34-12.64c2.22-3.73,5.2-6.71,8.93-8.93,3.73-2.22,7.91-3.34,12.55-3.34,3.57,0,7.03.67,10.39,2.02,3.35,1.35,6.25,3.31,8.7,5.88l-5.83,6.49c-1.82-2-3.85-3.51-6.11-4.51-2.26-1-4.61-1.5-7.05-1.5-2.95,0-5.59.72-7.94,2.16-2.35,1.44-4.2,3.42-5.55,5.92-1.35,2.51-2.02,5.3-2.02,8.37s.69,5.88,2.07,8.41c1.38,2.54,3.26,4.53,5.64,5.97,2.38,1.44,5.04,2.16,7.99,2.16,2.44,0,4.73-.49,6.86-1.46,2.13-.97,4.14-2.4,6.02-4.28l5.73,6.11c-2.51,2.51-5.41,4.45-8.7,5.83-3.29,1.38-6.69,2.07-10.2,2.07Z"/>
    <path class="cls-1" d="M3511.67,809.47c-4.14,0-8.01-.61-11.61-1.83-3.6-1.22-6.72-2.99-9.35-5.31l5.08-6.2c2.5,2.01,5.06,3.51,7.66,4.51,2.6,1,5.25,1.5,7.94,1.5,3.38,0,6.14-.64,8.27-1.93,2.13-1.28,3.2-2.99,3.2-5.12,0-1.75-.63-3.13-1.88-4.14-1.25-1-3.2-1.69-5.83-2.07l-8.65-1.22c-4.83-.69-8.41-2.16-10.76-4.42-2.35-2.26-3.53-5.26-3.53-9.02,0-2.82.78-5.33,2.35-7.52,1.57-2.19,3.76-3.88,6.58-5.08,2.82-1.19,6.08-1.79,9.78-1.79s6.86.49,10.06,1.46c3.2.97,6.27,2.52,9.21,4.65l-4.7,6.2c-2.7-1.75-5.26-3.04-7.71-3.85-2.44-.81-4.95-1.22-7.52-1.22-2.88,0-5.2.61-6.96,1.83-1.75,1.22-2.63,2.81-2.63,4.75,0,1.82.63,3.18,1.88,4.09,1.25.91,3.23,1.58,5.92,2.02l8.74,1.32c4.76.63,8.37,2.07,10.81,4.32,2.44,2.26,3.67,5.26,3.67,9.02,0,2.82-.89,5.37-2.68,7.66-1.79,2.29-4.17,4.09-7.14,5.41-2.98,1.32-6.38,1.97-10.2,1.97Z"/>
    <path class="cls-1" d="M3591.38,809.56c-4.89,0-9.42-.86-13.58-2.58-4.17-1.72-7.83-4.14-11-7.24-3.17-3.1-5.61-6.71-7.33-10.81-1.72-4.1-2.59-8.54-2.59-13.3s.86-9.29,2.59-13.39c1.72-4.1,4.17-7.69,7.33-10.76,3.16-3.07,6.85-5.47,11.04-7.19,4.2-1.72,8.71-2.58,13.54-2.58,3.45,0,6.82.46,10.11,1.36,3.29.91,6.33,2.21,9.12,3.9,2.79,1.69,5.25,3.76,7.38,6.2l-6.67,6.67c-2.44-2.94-5.42-5.18-8.93-6.72-3.51-1.54-7.18-2.3-11-2.3-3.51,0-6.74.63-9.68,1.88-2.95,1.25-5.53,3.01-7.75,5.26-2.23,2.26-3.95,4.89-5.17,7.9s-1.83,6.27-1.83,9.78.61,6.77,1.83,9.78,2.94,5.64,5.17,7.9c2.22,2.26,4.86,4.01,7.9,5.26,3.04,1.25,6.28,1.88,9.73,1.88,3.82,0,7.46-.78,10.9-2.35,3.45-1.57,6.36-3.73,8.74-6.49l6.49,6.58c-2.13,2.32-4.59,4.34-7.38,6.06-2.79,1.72-5.8,3.04-9.02,3.95-3.23.91-6.53,1.36-9.92,1.36Z"/>
    <path class="cls-1" d="M3647.59,809.47c-4.64,0-8.85-1.08-12.64-3.24-3.79-2.16-6.8-5.14-9.02-8.93-2.23-3.79-3.34-8-3.34-12.64s1.1-8.91,3.29-12.64c2.19-3.73,5.2-6.71,9.02-8.93,3.82-2.22,8.05-3.34,12.69-3.34s8.85,1.11,12.64,3.34c3.79,2.23,6.78,5.2,8.98,8.93,2.19,3.73,3.29,7.94,3.29,12.64s-1.1,8.85-3.29,12.64c-2.19,3.79-5.19,6.77-8.98,8.93-3.79,2.16-8.01,3.24-12.64,3.24ZM3647.59,801.2c2.95,0,5.61-.74,7.99-2.21,2.38-1.47,4.26-3.46,5.64-5.97,1.38-2.51,2.07-5.33,2.07-8.46s-.69-5.84-2.07-8.32c-1.38-2.47-3.26-4.46-5.64-5.97-2.38-1.5-5.04-2.26-7.99-2.26s-5.53.75-7.94,2.26c-2.41,1.5-4.31,3.49-5.69,5.97-1.38,2.48-2.07,5.25-2.07,8.32s.69,5.95,2.07,8.46c1.38,2.51,3.27,4.5,5.69,5.97,2.41,1.47,5.06,2.21,7.94,2.21Z"/>
    <path class="cls-1" d="M3681.43,808.53v-47.85h9.4v4.51c3.57-3.63,8.05-5.45,13.44-5.45,3.26,0,6.17.72,8.74,2.16,2.57,1.44,4.57,3.42,6.02,5.92,1.94-2.69,4.28-4.71,7-6.06,2.73-1.35,5.78-2.02,9.17-2.02,3.57,0,6.69.78,9.35,2.35,2.66,1.57,4.75,3.75,6.25,6.53,1.5,2.79,2.26,6.06,2.26,9.82v30.08h-9.31v-28.48c0-3.76-.99-6.72-2.96-8.88-1.97-2.16-4.62-3.24-7.94-3.24-2.38,0-4.51.55-6.39,1.65-1.88,1.1-3.51,2.71-4.89,4.84.12.63.22,1.29.28,1.97.06.69.09,1.38.09,2.07v30.08h-9.31v-28.48c0-3.76-1-6.72-3.01-8.88-2.01-2.16-4.64-3.24-7.9-3.24-2.32,0-4.39.49-6.2,1.46-1.82.97-3.38,2.43-4.7,4.37v34.78h-9.4Z"/>
    <path class="cls-1" d="M3763.96,827.7v-67.02h9.31v4.61c4.07-3.57,8.96-5.36,14.66-5.36,4.51,0,8.6,1.1,12.27,3.29,3.67,2.19,6.56,5.16,8.69,8.88,2.13,3.73,3.2,7.88,3.2,12.46s-1.07,8.82-3.2,12.55c-2.13,3.73-5.04,6.69-8.74,8.88-3.7,2.19-7.87,3.29-12.5,3.29-2.63,0-5.16-.41-7.57-1.22-2.41-.81-4.65-2-6.72-3.57v23.22h-9.4ZM3786.71,801.1c3.07,0,5.81-.71,8.22-2.12,2.41-1.41,4.34-3.37,5.78-5.88,1.44-2.51,2.16-5.33,2.16-8.46s-.72-5.95-2.16-8.46c-1.44-2.51-3.37-4.5-5.78-5.97-2.41-1.47-5.16-2.21-8.22-2.21-2.7,0-5.2.52-7.52,1.55-2.32,1.03-4.26,2.46-5.83,4.28v21.62c1.57,1.69,3.52,3.06,5.88,4.09,2.35,1.03,4.84,1.55,7.47,1.55Z"/>
    <path class="cls-1" d="M3836.72,809.37c-3.51,0-6.58-.61-9.21-1.83-2.63-1.22-4.7-2.93-6.2-5.12-1.5-2.19-2.26-4.73-2.26-7.61,0-4.51,1.74-8.05,5.22-10.62,3.48-2.57,8.19-3.85,14.15-3.85,4.7,0,9.02.85,12.97,2.54v-4.98c0-3.45-.97-6.02-2.91-7.71-1.94-1.69-4.83-2.54-8.65-2.54-2.19,0-4.46.33-6.82.99-2.35.66-5,1.68-7.94,3.06l-3.57-7.05c3.57-1.69,6.94-2.93,10.11-3.71,3.16-.78,6.34-1.17,9.54-1.17,6.2,0,11.01,1.47,14.43,4.42,3.42,2.95,5.12,7.14,5.12,12.6v31.77h-9.31v-4.14c-2.07,1.69-4.32,2.95-6.77,3.76s-5.08,1.22-7.9,1.22ZM3827.97,794.52c0,2.38,1,4.29,3.01,5.73,2,1.44,4.61,2.16,7.8,2.16,2.51,0,4.83-.38,6.96-1.13,2.13-.75,4.01-1.91,5.64-3.48v-8.08c-1.76-1-3.64-1.75-5.64-2.26-2.01-.5-4.17-.75-6.49-.75-3.51,0-6.27.72-8.27,2.16-2.01,1.44-3.01,3.32-3.01,5.64Z"/>
    <path class="cls-1" d="M3871.5,808.53v-47.85h9.4v4.89c3.7-3.88,8.49-5.83,14.38-5.83,3.7,0,6.94.78,9.73,2.35,2.79,1.57,4.98,3.76,6.58,6.58,1.6,2.82,2.4,6.08,2.4,9.78v30.08h-9.4v-28.48c0-3.76-1.07-6.72-3.2-8.88-2.13-2.16-5.05-3.24-8.74-3.24-2.51,0-4.75.55-6.72,1.65-1.97,1.1-3.65,2.65-5.03,4.65v34.31h-9.4Z"/>
    <path class="cls-1" d="M3926.96,828.65c-.94,0-1.85-.05-2.73-.14-.88-.09-1.6-.17-2.16-.23v-8.37c1.13.25,2.51.38,4.14.38,4.32,0,7.52-2.35,9.59-7.05l1.97-4.51-19.18-48.03h10.34l14.01,36.38,15.42-36.38h10.15l-23.12,53.77c-1.5,3.45-3.12,6.2-4.84,8.27-1.72,2.07-3.67,3.57-5.83,4.51s-4.75,1.41-7.75,1.41Z"/>
  </g>
</svg>